<?xml version="1.0" standalone="no"?>
<!DOCTYPE svg PUBLIC "-//W3C//DTD SVG 20010904//EN"
 "http://www.w3.org/TR/2001/REC-SVG-20010904/DTD/svg10.dtd">
<svg version="1.0" xmlns="http://www.w3.org/2000/svg"
 width="320.000000pt" height="320.000000pt" viewBox="0 0 320.000000 320.000000"
 preserveAspectRatio="xMidYMid meet">

<g transform="translate(0.000000,320.000000) scale(0.100000,-0.100000)"
fill="white" stroke="none">
<path d="M2150 3195 c0 -3 15 -11 33 -20 17 -8 39 -19 47 -25 8 -5 48 -28 89
-51 41 -23 84 -50 95 -61 12 -11 50 -34 86 -51 36 -18 67 -35 70 -39 3 -4 14
-11 25 -15 11 -4 52 -29 90 -54 71 -47 196 -123 244 -148 14 -8 28 -17 31 -21
3 -4 15 -10 26 -14 12 -4 37 -21 55 -39 19 -18 52 -43 74 -56 22 -14 50 -33
63 -44 l22 -20 0 331 0 332 -525 0 c-289 0 -525 -2 -525 -5z"/>
<path d="M0 1550 l0 -1550 663 1 c364 1 652 4 640 6 -13 2 -23 9 -23 14 0 5
-7 9 -15 9 -8 0 -15 5 -15 10 0 6 -6 10 -13 10 -16 0 -44 33 -40 45 2 6 -14
26 -35 46 -47 46 -99 139 -78 139 11 0 14 9 11 29 -2 22 1 30 15 34 14 3 17 1
13 -11 -4 -9 -2 -13 4 -9 6 4 23 3 37 -3 19 -7 26 -6 26 2 0 15 11 4 14 -14 3
-19 75 -88 93 -88 8 0 17 -9 20 -19 3 -11 14 -22 25 -24 11 -3 17 -10 14 -15
-3 -6 6 -15 22 -20 15 -5 36 -19 47 -29 11 -11 42 -23 69 -26 32 -5 54 -14 63
-27 10 -14 25 -20 54 -20 24 0 38 4 34 10 -4 6 5 10 21 10 24 0 26 2 20 31 -3
17 -6 34 -6 38 0 3 -12 12 -28 18 -33 15 -62 61 -62 100 -1 26 -2 27 -14 10
-10 -12 -15 -14 -18 -6 -3 10 -17 10 -64 0 -32 -7 -76 -10 -97 -8 -42 5 -63
17 -29 17 12 0 22 5 22 10 0 6 -9 10 -20 10 -25 0 -84 55 -75 69 8 14 35 14
35 1 0 -11 30 -13 54 -4 9 3 16 12 16 20 0 7 10 23 22 34 l23 21 -23 6 c-36 9
-27 26 13 23 14 -2 65 36 65 47 0 7 7 13 15 13 9 0 12 -6 8 -18 -6 -16 -5 -16
14 0 11 10 25 18 31 18 7 0 12 5 12 11 0 7 10 -3 23 -22 19 -28 22 -39 14 -62
-9 -27 1 -55 10 -29 3 6 11 12 20 12 10 0 12 6 8 20 -4 11 -2 20 4 20 6 0 11
5 11 11 0 6 -9 8 -21 4 -19 -6 -21 -4 -16 16 4 13 7 31 7 40 0 8 9 25 21 37
11 12 17 27 14 33 -4 5 -1 17 6 25 6 8 9 17 5 21 -3 3 -6 1 -6 -5 0 -7 -4 -12
-10 -12 -5 0 -10 11 -10 25 0 14 4 25 8 25 7 0 10 16 12 72 1 19 6 25 16 21 9
-3 20 10 34 41 10 25 24 46 30 46 5 0 10 9 10 19 0 11 7 26 15 34 11 12 12 22
4 51 -7 27 -7 41 1 51 10 12 16 9 36 -14 13 -16 27 -44 30 -63 4 -18 14 -39
23 -47 14 -12 14 -13 0 -8 -13 4 -15 0 -11 -21 3 -15 9 -30 15 -33 5 -4 11
-35 13 -70 3 -34 9 -68 15 -75 6 -7 10 -33 8 -56 -1 -24 1 -64 5 -91 6 -33 5
-52 -4 -62 -9 -11 -9 -19 3 -36 16 -22 13 -85 -4 -103 -12 -14 -11 -66 1 -66
6 0 10 4 10 9 0 15 66 111 72 105 3 -3 12 10 19 28 l13 33 6 -55 c4 -41 7 -48
11 -30 5 19 7 15 8 -16 1 -28 -6 -50 -19 -67 -11 -14 -20 -28 -20 -31 0 -32
-42 -89 -101 -136 -38 -30 -78 -67 -89 -82 l-21 -28 696 0 695 0 0 803 c0 795
0 803 -20 825 -12 12 -24 22 -28 22 -5 0 -42 33 -83 73 -78 76 -113 107 -193
172 -28 22 -61 50 -74 63 -14 12 -28 22 -33 22 -4 0 -14 6 -21 13 -20 18 -96
67 -106 67 -5 0 -17 9 -27 20 -10 11 -23 20 -30 20 -7 0 -31 14 -53 30 -23 17
-45 30 -48 30 -3 0 -23 13 -43 29 -35 28 -41 31 -60 31 -5 0 -16 6 -23 13 -7
6 -38 24 -68 39 -142 69 -329 158 -333 158 -2 0 -62 28 -133 61 -71 34 -142
65 -159 70 -16 4 -55 17 -85 29 -30 12 -70 26 -88 31 -19 6 -54 21 -79 35 -25
13 -53 24 -61 24 -18 0 -73 17 -120 36 -18 8 -42 14 -54 14 -29 0 -85 18 -130
41 -20 10 -48 19 -62 19 -26 0 -89 25 -116 46 -8 6 -35 17 -60 22 -25 6 -70
18 -100 27 -30 9 -73 21 -95 27 -22 5 -47 13 -57 18 -9 5 -40 12 -68 16 -28 4
-47 10 -41 14 7 4 2 11 -12 17 -26 12 -140 42 -178 47 -13 2 -31 6 -39 8 -48
16 -90 27 -124 33 -22 4 -49 13 -60 21 -11 8 -24 14 -28 14 -5 0 -8 -697 -8
-1550z m885 1028 c30 0 55 -4 55 -8 0 -4 12 -7 28 -8 44 -1 164 -23 184 -33
28 -15 21 -30 -9 -24 -23 5 -25 4 -10 -5 9 -6 24 -24 32 -39 13 -27 13 -29
-11 -40 -14 -6 -45 -11 -69 -11 -50 0 -77 -8 -69 -21 3 -5 -2 -9 -10 -9 -10 0
-13 -6 -10 -15 5 -11 -1 -15 -25 -15 -17 0 -31 -3 -31 -8 0 -4 -30 -16 -67
-26 -83 -24 -165 -59 -186 -81 -13 -12 -14 -21 -6 -43 16 -42 30 -56 41 -40 6
9 11 9 14 2 8 -18 104 2 184 38 148 68 153 70 211 64 30 -3 92 -19 138 -36 46
-16 85 -30 87 -30 7 0 22 -73 17 -86 -3 -9 2 -14 15 -14 12 0 29 -13 41 -32
11 -18 38 -59 60 -90 41 -60 59 -94 81 -163 7 -22 21 -51 31 -65 9 -14 19 -42
22 -63 l6 -37 -38 6 c-33 5 -41 3 -59 -21 -12 -15 -19 -32 -15 -38 12 -19 9
-59 -4 -64 -10 -4 -11 -9 -3 -18 7 -9 7 -15 1 -19 -5 -4 -12 -2 -16 4 -3 5
-11 10 -16 10 -5 0 -2 -11 7 -24 8 -14 17 -38 20 -53 7 -45 11 -133 7 -133 -2
0 -17 7 -33 15 -36 18 -39 35 -7 35 21 1 20 2 -6 18 -22 13 -27 23 -24 42 3
15 -1 29 -11 37 -15 11 -15 14 -2 22 23 15 -26 101 -57 101 -12 0 -25 5 -28
11 -4 6 -14 8 -22 4 -9 -3 -28 2 -42 12 -30 20 -164 21 -188 2 -7 -6 -13 -8
-13 -3 0 5 -27 8 -60 7 -41 -1 -65 3 -74 13 -18 17 -38 18 -54 2 -9 -9 -12 -9
-12 2 0 13 -2 13 -9 1 -5 -7 -14 -10 -20 -7 -18 12 -13 23 19 36 47 19 37 33
-17 25 -49 -7 -123 -47 -123 -66 0 -7 10 -5 25 5 28 18 35 19 53 7 26 -16 -90
-107 -121 -95 -9 3 -14 11 -11 19 12 29 -112 35 -145 6 l-22 -19 21 -20 c22
-21 14 -37 -14 -26 -20 8 -20 -9 0 -48 18 -34 13 -47 -53 -155 -18 -29 -35
-63 -38 -76 -6 -21 13 -119 29 -158 5 -10 2 -16 -8 -16 -16 0 -66 92 -66 119
0 9 -7 33 -16 54 -27 64 -52 164 -43 170 5 3 9 19 9 35 0 56 50 128 103 148
24 9 27 8 33 -16 l7 -25 14 33 c12 28 12 37 -2 65 -25 53 -19 93 22 154 33 48
38 63 40 120 2 59 6 88 19 132 4 14 0 15 -32 8 -32 -7 -42 -5 -71 17 -34 26
-51 27 -120 5 l-32 -10 1 36 c3 72 47 120 163 175 17 8 47 34 68 58 21 24 47
54 58 65 21 24 25 44 8 44 -5 0 -39 -20 -75 -45 -45 -32 -71 -44 -85 -40 -10
4 -19 9 -19 13 0 16 49 66 56 59 5 -4 2 -12 -6 -17 -11 -7 -12 -12 -3 -21 15
-15 29 27 15 44 -7 8 -6 16 3 24 10 9 14 8 18 -8 3 -10 11 -19 17 -19 7 0 10
7 6 15 -10 28 14 60 75 99 73 47 154 77 192 70 15 -3 52 -6 82 -6z m935 -495
c51 -57 80 -132 96 -244 7 -56 11 -105 8 -110 -8 -14 -24 -10 -24 6 0 9 -6 12
-15 9 -9 -4 -15 0 -15 9 0 38 -25 62 -67 65 -42 2 -42 2 -54 -40 -10 -36 -13
-40 -20 -23 -4 11 -8 37 -8 58 -1 36 0 37 21 26 l21 -11 -22 30 c-15 22 -18
32 -9 36 9 3 8 9 -6 20 -10 8 -16 22 -13 30 4 9 2 18 -3 21 -6 4 -10 15 -10
25 0 10 -7 23 -16 28 -9 5 -14 18 -12 33 2 19 9 24 32 24 21 0 31 6 37 23 12
33 42 27 79 -15z m-1389 -223 c1 -5 2 -16 3 -22 1 -7 -12 -21 -29 -30 -38 -21
-46 -22 -39 -3 4 8 -1 17 -10 21 -9 3 -16 10 -16 15 0 21 89 39 91 19z m1417
-92 c7 -7 12 -27 12 -44 0 -29 3 -33 26 -31 15 1 29 -4 32 -12 3 -10 -2 -13
-21 -9 -18 3 -24 1 -20 -8 2 -7 17 -12 31 -11 23 2 27 -2 24 -23 -7 -63 -97
-95 -142 -50 -29 29 -25 43 10 38 17 -3 30 -2 30 0 0 8 -48 50 -62 54 -10 4
-9 9 5 22 9 10 20 29 23 44 4 15 9 30 11 35 6 11 27 9 41 -5z m-608 -279 c62
2 74 0 89 -13 9 -7 24 -16 34 -19 18 -7 24 -37 7 -37 -9 0 22 -65 41 -84 13
-14 11 -44 -3 -49 -8 -3 -6 -6 5 -6 21 -1 22 -15 1 -36 -14 -13 -14 -18 -2
-32 9 -12 9 -15 1 -9 -7 4 -13 2 -13 -3 0 -6 5 -11 11 -11 6 0 3 -7 -5 -16 -9
-8 -16 -20 -16 -25 0 -5 -5 -9 -11 -9 -5 0 -7 5 -4 10 7 12 3 12 -19 4 -20 -8
-20 -23 1 -46 15 -17 14 -18 -15 -24 -32 -7 -40 -18 -22 -29 6 -4 4 -12 -5
-21 -18 -19 -19 -34 -2 -35 6 0 4 -4 -7 -8 -18 -7 -18 -8 0 -25 18 -18 17 -19
-19 -14 -26 3 -37 0 -37 -9 0 -7 -7 -13 -15 -13 -8 0 -15 6 -15 13 0 9 -3 8
-9 -2 -6 -9 -11 -10 -15 -2 -12 19 -28 12 -21 -9 5 -16 2 -20 -17 -20 -13 0
-30 4 -38 10 -12 8 -12 10 3 16 9 3 17 10 17 15 0 4 -7 6 -15 3 -8 -4 -15 -1
-15 5 0 6 -7 11 -15 11 -8 0 -15 5 -15 10 0 20 -3 25 -28 47 -14 12 -30 19
-35 16 -6 -3 -1 -12 9 -20 18 -14 18 -14 -6 -12 -61 5 -73 1 -66 -26 5 -18 2
-25 -8 -25 -7 0 -16 9 -19 20 -4 17 -10 20 -34 14 -15 -4 -34 -13 -41 -21 -7
-7 -21 -13 -29 -13 -9 0 -24 -7 -33 -15 -15 -13 -19 -12 -39 9 -19 20 -22 31
-16 53 4 15 8 39 9 53 1 14 5 31 9 38 5 7 4 12 -2 12 -6 0 -11 -4 -11 -10 0
-13 -27 -13 -35 -1 -3 5 -9 31 -15 58 -8 43 -7 50 13 65 15 12 17 18 8 18 -8
0 -22 -7 -32 -16 -19 -17 -79 -11 -79 8 0 5 33 43 74 84 68 68 147 116 163
100 4 -3 16 0 27 7 26 17 148 54 199 60 21 3 41 8 45 12 4 4 30 4 57 0 28 -4
61 -7 75 -6z m-646 -401 c-3 -4 1 -8 9 -8 15 0 27 -29 27 -66 0 -12 7 -24 15
-28 8 -3 15 -11 15 -19 0 -7 9 -30 20 -52 11 -21 18 -40 17 -41 -2 -2 -14 7
-28 20 -14 13 -35 28 -46 35 -15 8 -21 20 -21 41 1 16 5 30 10 30 4 0 8 5 8
10 0 6 -6 10 -14 10 -8 0 -18 5 -22 12 -5 8 -2 9 12 4 16 -6 16 -5 -3 13 -12
12 -31 21 -43 21 -30 0 -24 27 8 38 27 9 47 -2 36 -20z m811 -28 c3 -5 -1 -10
-10 -10 -9 0 -13 5 -10 10 3 6 8 10 10 10 2 0 7 -4 10 -10z m-169 -272 c34
-30 53 -64 31 -55 -17 7 -30 -25 -16 -42 6 -8 5 -8 -3 -1 -6 5 -13 18 -15 27
-6 30 -8 38 -14 48 -10 18 -19 45 -14 45 3 0 17 -10 31 -22z m-42 -14 c8 -21
-12 -17 -24 6 -8 16 -8 18 4 14 8 -3 17 -12 20 -20z m-131 -35 c23 -26 18 -39
-10 -28 -14 5 -23 17 -23 29 0 26 11 25 33 -1z m157 -17 c0 -15 -2 -15 -10 -2
-13 20 -13 33 0 25 6 -3 10 -14 10 -23z m70 -12 c0 -5 -2 -10 -4 -10 -3 0 -8
5 -11 10 -3 6 -1 10 4 10 6 0 11 -4 11 -10z m-180 -14 c0 -3 -4 -8 -10 -11 -5
-3 -10 -1 -10 4 0 6 5 11 10 11 6 0 10 -2 10 -4z m995 -54 l-7 -27 -10 29 c-8
22 -7 30 3 37 18 11 23 -4 14 -39z m-554 -57 c17 -6 18 -9 7 -23 -11 -14 -10
-15 6 -9 17 7 18 6 4 -15 -19 -28 -44 -38 -35 -14 6 14 3 16 -16 11 -12 -4
-29 -14 -37 -23 -17 -20 -62 -21 -68 -2 -3 9 -6 9 -13 -1 -6 -9 -9 -10 -9 -2
0 19 21 27 31 12 7 -11 9 -10 9 3 0 11 15 25 38 35 20 9 41 19 46 21 5 3 5 -1
1 -8 -6 -10 -4 -12 9 -7 10 4 21 7 24 7 4 0 -3 7 -15 15 -15 11 -20 21 -15 33
6 15 7 14 10 -5 2 -12 12 -25 23 -28z m-160 -108 c-6 -8 -8 -17 -4 -20 3 -4
-8 -7 -25 -7 -39 0 -41 15 -4 28 38 14 46 14 33 -1z m696 -84 c-3 -10 -5 -2
-5 17 0 19 2 27 5 18 2 -10 2 -26 0 -35z m-767 -113 c18 -12 2 -12 -25 0 -13
6 -15 9 -5 9 8 0 22 -4 30 -9z"/>
<path d="M1107 2094 c-21 -8 -61 -15 -90 -18 -29 -2 -69 -11 -89 -20 -21 -9
-42 -16 -48 -16 -9 0 -14 -21 -11 -42 0 -4 -6 -5 -15 -1 -9 3 -20 0 -24 -7 -7
-11 -13 -10 -34 3 -32 21 -31 22 -34 -7 -1 -21 4 -25 46 -35 26 -5 104 -13
173 -17 102 -5 137 -3 183 10 31 9 56 21 56 27 0 11 -26 9 -100 -8 -25 -5 -25
-5 -5 11 19 16 18 16 -12 1 -36 -17 -103 -20 -103 -5 0 6 7 10 16 10 8 0 43
11 77 24 64 26 99 34 153 35 27 1 31 4 31 30 0 26 -4 29 -45 35 -59 8 -80 6
-125 -10z"/>
<path d="M1165 2000 c-3 -6 1 -7 9 -4 18 7 21 14 7 14 -6 0 -13 -4 -16 -10z"/>
<path d="M790 1800 c0 -15 31 -33 40 -24 5 5 -1 14 -16 21 -13 6 -24 8 -24 3z"/>
<path d="M1475 1520 c3 -5 8 -10 11 -10 2 0 4 5 4 10 0 6 -5 10 -11 10 -5 0
-7 -4 -4 -10z"/>
<path d="M1750 2049 c0 -8 22 -42 49 -75 27 -34 57 -84 66 -112 9 -28 23 -59
31 -69 12 -17 13 -16 13 7 1 35 -22 120 -32 120 -4 -1 -27 25 -51 57 -50 69
-76 93 -76 72z"/>
<path d="M1175 1426 c-29 -13 -29 -13 19 -8 53 5 72 -8 54 -41 -5 -10 -7 -21
-4 -25 3 -3 6 0 6 6 0 7 6 12 13 12 14 0 48 55 39 64 -10 11 -97 5 -127 -8z"/>
<path d="M1911 354 c0 -11 3 -14 6 -6 3 7 2 16 -1 19 -3 4 -6 -2 -5 -13z"/>
<path d="M1600 324 c0 -8 5 -12 10 -9 6 4 8 11 5 16 -9 14 -15 11 -15 -7z"/>
</g>
</svg>
